<svg width="164" height="52" viewBox="0 0 164 52" fill="none" xmlns="http://www.w3.org/2000/svg">
<path d="M143.903 0.5C149.258 0.5 153.474 1.38325 156.362 3.37891C159.287 5.39937 160.778 8.50893 160.778 12.7607C160.778 15.8393 159.999 18.355 158.415 20.2871C157.163 21.8145 155.434 22.9407 153.27 23.7031C156.038 24.4976 158.247 25.716 159.835 27.4785C161.763 29.6184 162.719 32.4965 162.719 36.2109C162.719 40.9149 161.133 44.2938 157.92 46.4668C154.748 48.6116 150.065 49.5283 143.981 49.5283H84.5V0.5H143.903ZM101.021 38.5986H140.799C143.16 38.5986 144.742 38.3467 145.729 37.7471C146.65 37.1876 147.129 36.2735 147.129 34.6621C147.129 33.1187 146.576 32.2044 145.635 31.6396C144.641 31.0437 143.146 30.7959 141.188 30.7959H101.021V38.5986ZM101.021 19.7256H139.868C141.567 19.7256 142.908 19.415 143.809 18.8076C144.679 18.221 145.188 17.3257 145.188 16C145.188 14.6381 144.769 13.7606 143.933 13.1914C143.052 12.5919 141.626 12.2744 139.479 12.2744H101.021V19.7256Z" fill="#004AAD" stroke="#004AAD"/>
<path d="M40.8896 0.5C53.7337 0.5 67.4272 2.1946 78.2432 4.4541L78.7451 4.55859L78.6279 5.05762L75.834 16.959L75.7256 17.4209L75.2598 17.3369C66.1851 15.7181 53.5705 13.7539 41.4326 13.7539C31.4627 13.7539 25.4113 14.7448 21.8584 16.7354C20.1011 17.7199 18.9635 18.9459 18.2568 20.4219C17.5455 21.9078 17.2539 23.6829 17.2539 25.7891C17.2539 27.9132 17.5451 29.7022 18.2568 31.1982C18.9639 32.6842 20.1024 33.9158 21.8594 34.9043C25.4118 36.9031 31.4625 37.8945 41.4326 37.8945C53.5705 37.8945 66.1851 35.9293 75.2598 34.3105L75.7256 34.2275L75.834 34.6885L78.6279 46.5898L78.7451 47.0889L78.2432 47.1934C67.4271 49.4529 53.7338 51.1475 40.8896 51.1475C26.347 51.1474 16.2528 48.9638 9.78418 44.6826C3.27135 40.372 0.500075 33.9819 0.5 25.7891C0.5 17.5958 3.27161 11.2227 9.78516 6.92969C16.2538 2.66645 26.3476 0.500019 40.8896 0.5Z" fill="#004AAD" stroke="#004AAD"/>
</svg>
