<svg width="870" height="50" viewBox="0 0 870 46" fill="none" xmlns="http://www.w3.org/2000/svg">
<path d="M85.448 44.416H72.456V0.768005H85.448V16.512H123.208V0.768005H136.2V44.416H123.208V27.584H85.448V44.416Z" fill="black"/>
<path d="M197.664 44.416L192.416 35.968H160.16L154.848 44.416H139.232L167.712 0.768005H184.992L213.408 44.416H197.664ZM165.792 26.944H186.72L176.288 10.176L165.792 26.944Z" fill="black"/>
<path d="M227.448 44.416H214.456V0.768005H258.168C268.92 0.768005 276.408 4.54401 276.408 16C276.408 25.6 270.712 30.208 261.048 30.976L258.232 31.04L261.688 33.152L276.024 44.416H259.704L244.024 31.744H227.448V44.416ZM227.448 11.904V22.016H256.888C261.176 22.016 262.968 20.608 262.968 17.024C262.968 13.12 261.176 11.904 256.888 11.904H227.448Z" fill="black"/>
<path d="M292.448 33.28H335.776V44.416H279.456V0.768005H292.448V33.28Z" fill="black"/>
<path d="M402.696 44.416H344.456V0.768005H402.696V10.944H357.448V18.176H401.48V26.56H357.448V34.24H402.696V44.416Z" fill="black"/>
<path d="M468.336 32C468.336 41.216 462.064 45.248 440.496 45.248C429.616 45.248 417.008 43.712 409.136 41.792L410.992 31.36C419.952 33.344 430.832 35.072 443.952 35.072C454.192 35.072 456.048 34.24 456.048 31.616C456.048 28.928 454.448 28.608 451.056 28.288L426.928 26.88C413.36 26.24 408.432 21.888 408.432 13.76C408.432 3.968 417.008 0 437.232 0C444.976 0 457.584 1.216 466.224 3.072L464.112 12.864C456.688 11.392 445.168 10.176 434.224 10.176C422.448 10.176 420.72 10.816 420.72 13.44C420.72 15.872 422.384 16.256 426.352 16.512L450.16 17.92C462.704 18.624 468.336 22.976 468.336 32Z" fill="black"/>
<path d="M12.992 22.528C12.992 30.4 16.896 33.984 33.344 33.984C43.392 33.984 53.824 32.192 61.312 30.72L63.616 41.536C54.72 43.584 43.456 45.12 32.896 45.12C8.96 45.12 0 37.184 0 22.528C0 7.872 8.96 0 32.896 0C43.456 0 54.72 1.536 63.616 3.584L61.312 14.4C53.824 12.928 43.392 11.136 33.344 11.136C16.896 11.136 12.992 14.72 12.992 22.528Z" fill="black"/>
<path d="M539.64 44.544H491V0.895996H539.576C548.344 0.895996 553.08 4.096 553.08 11.584C553.08 17.024 550.584 20.288 545.72 21.568C551.608 22.912 554.68 26.304 554.68 32.896C554.68 41.216 549.624 44.544 539.64 44.544ZM535.928 10.688H503.8V18.368H536.248C539.128 18.368 541.048 17.216 541.048 14.528C541.048 11.84 539.512 10.688 535.928 10.688ZM537.336 27.52H503.8V35.52H537.016C540.92 35.52 542.648 34.624 542.648 31.488C542.648 28.416 540.6 27.52 537.336 27.52Z" fill="black"/>
<path d="M593.56 45.44C568.536 45.44 557.72 38.336 557.72 22.72C557.72 7.104 568.536 0 593.56 0C618.584 0 629.4 7.104 629.4 22.72C629.4 38.336 618.584 45.44 593.56 45.44ZM593.56 34.304C611.032 34.304 616.152 31.168 616.152 22.72C616.152 14.272 611.032 11.136 593.56 11.136C576.024 11.136 570.712 14.272 570.712 22.72C570.712 31.168 576.024 34.304 593.56 34.304Z" fill="black"/>
<path d="M646.992 44.648H634V1H648.848L686.352 30.504V1H699.344V44.648H684.816L646.992 14.632V44.648Z" fill="black"/>
<path d="M717.536 44.192H704.544V0.544006H719.392L756.896 30.048V0.544006H769.888V44.192H755.36L717.536 14.176V44.192Z" fill="black"/>
<path d="M793.536 44.192H780.544V0.544006H793.536V44.192Z" fill="black"/>
<path d="M817.536 44.192H804.544V0.544006H819.392L856.896 30.048V0.544006H869.888V44.192H855.36L817.536 14.176V44.192Z" fill="black"/>
</svg>
