<svg width="32" height="33" viewBox="0 0 32 33" fill="none" xmlns="http://www.w3.org/2000/svg">
<path d="M1.82701 22.5616C1.8569 22.6357 1.89069 22.704 1.92708 22.7724C1.94397 22.8122 1.96737 22.8535 1.98816 22.8905C2.02195 22.9646 2.05834 23.0358 2.09343 23.107L2.29748 23.4828C2.33517 23.5526 2.37156 23.621 2.41445 23.6893C2.48593 23.8231 2.5704 23.9541 2.64448 24.088C2.67828 24.1435 2.70947 24.199 2.74716 24.2545C2.89012 24.498 3.02008 24.7002 3.15915 24.8967C3.25792 25.0433 3.35669 25.1871 3.46326 25.3309C3.49835 25.3851 3.53734 25.4392 3.57373 25.4933L3.86096 25.8748C3.89605 25.919 3.93114 25.9702 3.96883 26.0158C4.09619 26.1838 4.23136 26.3461 4.36652 26.5113C4.36652 26.5141 4.37042 26.517 4.37302 26.5212C4.54067 26.7519 4.72133 26.9569 4.91887 27.1392L4.92407 27.1449C5.02804 27.2616 5.13201 27.377 5.24249 27.4909L5.37375 27.629C5.51801 27.777 5.66227 27.9237 5.81433 28.0661C5.81693 28.0661 5.81823 28.0689 5.82083 28.0703L5.89491 28.1415C6.02747 28.2683 6.16134 28.3936 6.2978 28.5103L6.46026 28.6598C6.57073 28.7566 6.6851 28.8477 6.79817 28.9431L6.97492 29.0912C7.09579 29.1909 7.22445 29.2877 7.34792 29.3845C7.39341 29.4201 7.43889 29.4557 7.48568 29.4885L7.52337 29.5212L7.88857 29.7832L8.04453 29.8971C8.23558 30.0309 8.42533 30.1562 8.61508 30.2815C8.66966 30.3114 8.72425 30.3442 8.77493 30.3783C8.9153 30.4666 9.06086 30.5563 9.20252 30.6375C9.2805 30.6859 9.36108 30.7272 9.44165 30.7713C9.53913 30.8311 9.6405 30.8895 9.74447 30.9493C9.77307 30.9592 9.79646 30.9692 9.81985 30.9835L9.82505 30.9778C9.86794 30.9991 9.90823 31.0219 9.94982 31.0447C10.1058 31.1301 10.2682 31.2113 10.4372 31.291C10.4684 31.3052 10.5022 31.3195 10.536 31.3394C10.7231 31.4291 10.9103 31.5145 11.1039 31.5971C11.1481 31.6114 11.1949 31.6356 11.2404 31.6541C11.4158 31.7267 11.5965 31.8007 11.7758 31.8705L11.8408 31.8961C12.0397 31.9702 12.2359 32.0413 12.4386 32.1083C12.4854 32.1225 12.5335 32.141 12.5829 32.1552C12.7896 32.2236 12.9897 32.3047 13.1989 32.3475C26.5502 35 30.4297 23.5967 30.4297 23.5967C27.1702 28.2241 21.3854 29.4443 15.9074 28.086C15.7047 28.0348 15.5019 27.9636 15.2966 27.8981C15.0067 27.8082 14.7194 27.709 14.4349 27.6005L14.5584 27.6418L14.4778 27.6076C14.301 27.5421 14.1308 27.4695 13.9579 27.3969C13.9156 27.3772 13.8727 27.3592 13.8293 27.3428L13.815 27.3385C13.6239 27.2545 13.4381 27.1691 13.2535 27.0794C13.2132 27.0651 13.1794 27.0452 13.1392 27.0281C12.9206 26.9238 12.7039 26.8146 12.4893 26.7006L12.6687 26.7875C12.6219 26.7648 12.5759 26.7401 12.5309 26.7135C12.4088 26.6508 12.2866 26.5796 12.167 26.5127C12.076 26.4654 11.9862 26.4151 11.898 26.3618L11.924 26.376C11.7771 26.2906 11.6303 26.198 11.4821 26.1112C11.4379 26.077 11.3872 26.0485 11.3365 26.0172C11.1163 25.877 10.8988 25.7317 10.6841 25.5815L10.766 25.6356C10.711 25.5984 10.6572 25.559 10.6048 25.5175L10.6126 25.5232C10.473 25.4292 10.336 25.3304 10.2019 25.227C10.1578 25.1957 10.1175 25.1615 10.072 25.1273C9.93196 25.0226 9.79416 24.9144 9.6587 24.8027L9.68989 24.8269C9.6353 24.7785 9.57682 24.7329 9.51833 24.686C9.40396 24.5877 9.2883 24.4937 9.17393 24.3912L9.02057 24.2574C8.85712 24.1149 8.69679 23.9682 8.5397 23.8174L8.5384 23.816L8.08742 23.3675L7.95745 23.2337C7.85088 23.1155 7.74171 23.003 7.63254 22.8863L7.50648 22.7439C7.37192 22.5979 7.24062 22.4484 7.11268 22.2954L7.10488 22.2854L7.08279 22.2655C6.94518 22.0999 6.80957 21.9324 6.676 21.7629C6.64091 21.7187 6.60842 21.6718 6.57203 21.6248L6.27701 21.2332C6.14402 21.0502 6.01403 20.8646 5.88711 20.6765L5.83513 20.5968C2.79654 16.0748 1.69704 9.83424 4.12869 4.71423L1.98166 7.68856C-0.780093 12.0155 -0.438285 17.6424 1.67365 22.237C1.72173 22.3495 1.77502 22.4549 1.82701 22.5616Z" fill="#1266A9"/>
<path d="M11.1285 16.3282L11.1142 16.3054L11.1025 16.2883L11.1285 16.3282Z" fill="black"/>
<path d="M12.5815 18.1963L12.6984 18.3244C12.8466 18.481 12.9987 18.6334 13.1533 18.7857L13.1728 18.8042C13.3288 18.9552 13.5042 19.1132 13.6849 19.267L13.7122 19.2898C13.7564 19.3225 13.794 19.3609 13.8369 19.3937C14.0189 19.5475 14.2021 19.6941 14.3932 19.8408L14.4127 19.8536C14.4933 19.9176 14.579 19.976 14.67 20.0387C14.7064 20.0643 14.748 20.0985 14.787 20.1241C14.9247 20.2209 15.0599 20.3106 15.199 20.4032C15.2211 20.4131 15.2406 20.4259 15.2613 20.4359C15.3783 20.5142 15.5057 20.5897 15.6278 20.658C15.6707 20.6865 15.7123 20.7079 15.7565 20.7349C15.8436 20.7819 15.9294 20.8317 16.0125 20.8801L16.0541 20.9001C16.2296 20.994 16.4089 21.0823 16.5844 21.1692C16.6286 21.1877 16.6663 21.2033 16.704 21.2233C16.8482 21.2916 16.9951 21.3571 17.1393 21.4169C17.2043 21.4411 17.2654 21.4696 17.3265 21.491C17.4591 21.5451 17.5981 21.5949 17.7294 21.6447L17.9113 21.7088C18.1011 21.7729 18.2934 21.8569 18.4949 21.891C28.805 23.7505 31.1912 15.0981 31.1912 15.0981C29.0428 18.4682 24.8853 20.0743 20.4547 18.8199C20.2336 18.7588 20.0143 18.6899 19.7971 18.6134L19.8712 18.6362C19.8088 18.6177 19.7542 18.5964 19.6945 18.5764C19.5593 18.5252 19.4202 18.4753 19.289 18.4227L19.1018 18.3458C18.9563 18.2817 18.8081 18.2219 18.6664 18.1536C18.6222 18.1322 18.582 18.118 18.5482 18.0966C18.3662 18.0069 18.183 17.9186 18.0049 17.8247L17.7372 17.6723L17.5825 17.5869C17.463 17.5185 17.3525 17.4473 17.2381 17.3747C17.2089 17.3597 17.1807 17.3426 17.1536 17.3235L17.1575 17.3249C17.0198 17.2309 16.8768 17.1398 16.7442 17.0444C16.7001 17.0174 16.6598 16.9846 16.6182 16.9561L16.3479 16.7639C16.1607 16.6215 15.9775 16.4692 15.7916 16.3211C15.75 16.2798 15.7097 16.2457 15.6694 16.2086C13.7213 14.5385 12.1851 12.2561 11.456 9.67194C10.6879 6.98522 10.8568 3.97245 12.1838 1.52777L10.5527 4.04506C8.54995 7.17886 8.66302 11.3677 10.2226 14.6823C10.5072 15.2946 10.7957 15.8114 11.1142 16.304C11.4105 16.7682 11.738 17.3121 12.1331 17.6851C12.2735 17.8602 12.4242 18.0268 12.5815 18.1963Z" fill="#1266A9"/>
<path d="M3.16542 24.9052L3.16022 24.8967L3.15112 24.8838L3.16542 24.9052ZM8.56936 23.8459L8.58236 23.8559L8.58496 23.8601L8.56936 23.8459Z" fill="black"/>
<path d="M17.7606 1.31987C16.5792 3.20926 16.4661 5.55569 17.2797 7.63872C18.144 9.85131 19.9102 11.5884 21.9688 12.4113C22.0533 12.4469 22.1352 12.4768 22.2223 12.511L22.3366 12.5494C22.4562 12.5907 22.5771 12.6391 22.7005 12.669C28.3943 13.8664 29.9357 9.48255 30.3503 8.83756C28.9947 10.959 26.7216 11.4688 23.9326 10.7298C23.6901 10.665 23.4514 10.5842 23.2178 10.4878L23.2607 10.5034C22.97 10.3932 22.6854 10.2649 22.4081 10.119L22.4575 10.1432C21.9246 9.85843 21.4672 9.55089 21.0422 9.19779C18.5494 7.13327 17.0081 3.20214 18.6352 0L17.7606 1.31987Z" fill="#1266A9"/>
</svg>
