<svg width="35" height="35" viewBox="0 0 35 35" fill="none" xmlns="http://www.w3.org/2000/svg">
<g clip-path="url(#clip0_22_17)">
<path d="M17.5 34.9726C27.165 34.9726 35 27.1689 35 17.5426C35 7.91629 27.165 0.11261 17.5 0.11261C7.83502 0.11261 0 7.91629 0 17.5426C0 27.1689 7.83502 34.9726 17.5 34.9726Z" fill="#1A171B"/>
<path d="M25.1162 6.55311C23.3407 6.6148 21.7912 7.58938 20.6377 8.93748C19.3604 10.4156 18.5107 12.1688 17.8985 13.9584C16.8034 13.0644 15.9585 11.9071 14.2015 11.4025C12.8435 11.0141 11.4171 11.1745 10.1054 12.1479C9.48402 12.6102 9.05596 13.309 8.85238 13.9659C8.32533 15.6731 9.4065 17.1924 9.8976 17.7379L10.9712 18.8839C11.1926 19.1086 11.7257 19.6948 11.4651 20.5352C11.1834 21.449 10.0774 22.0406 8.94289 21.692C8.43621 21.5381 7.70832 21.1622 7.87129 20.6327C7.93869 20.4162 8.09428 20.2542 8.17767 20.0669C8.25424 19.9061 8.29074 19.7855 8.31398 19.7147C8.52125 19.0406 8.2381 18.1637 7.51322 17.941C6.83701 17.7346 6.14508 17.8981 5.87683 18.7654C5.57264 19.7506 6.04596 21.5387 8.58154 22.3173C11.5523 23.2264 14.0653 21.6154 14.4218 19.5141C14.6462 18.198 14.0496 17.2203 12.9565 15.9627L12.066 14.9817C11.5265 14.445 11.3412 13.53 11.8996 12.8268C12.3707 12.2337 13.0417 11.9805 14.1407 12.2782C15.7448 12.712 16.4598 13.8206 17.653 14.7147C17.1604 16.3241 16.8384 17.9395 16.5469 19.3881L16.3693 20.4681C15.5165 24.9238 14.8654 27.3704 13.1735 28.775C12.8327 29.0164 12.3454 29.3778 11.611 29.403C11.226 29.4149 11.1015 29.1511 11.0962 29.0362C11.087 28.767 11.3148 28.6436 11.4662 28.5224C11.6923 28.3996 12.0342 28.1959 12.011 27.5432C11.9864 26.7719 11.3449 26.1032 10.4177 26.1338C9.72314 26.1574 8.66453 26.8084 8.70431 28C8.74574 29.2309 9.8976 30.1533 11.6342 30.0949C12.5625 30.0632 14.6354 29.6868 16.6784 27.268C19.0562 24.4953 19.7212 21.3166 20.2215 18.9901L20.7799 15.9186C21.0901 15.9556 21.4218 15.9803 21.7826 15.9889C24.744 16.0511 26.2254 14.5233 26.2474 13.412C26.262 12.7394 25.8043 12.0776 25.1635 12.0926C24.7048 12.1055 24.1285 12.4096 23.9902 13.0414C23.8551 13.6613 24.9326 14.2207 24.0904 14.764C23.4921 15.1496 22.4195 15.4214 20.9091 15.2006L21.1837 13.6887C21.7443 10.8216 22.4357 7.29484 25.0585 7.20905C25.2496 7.19939 25.9491 7.21763 25.9653 7.6783C25.9701 7.83218 25.9318 7.87139 25.751 8.22367C25.5668 8.49833 25.4973 8.73214 25.506 9.0008C25.5312 9.73286 26.0902 10.214 26.8984 10.185C27.9807 10.1501 28.292 9.10062 28.2742 8.56165C28.2305 7.29525 26.8905 6.49524 25.1162 6.55311Z" fill="white"/>
</g>
<defs>
<clipPath id="clip0_22_17">
<rect width="35" height="35" fill="white"/>
</clipPath>
</defs>
</svg>
