<svg width="35" height="35" viewBox="0 0 35 35" fill="none" xmlns="http://www.w3.org/2000/svg">
<path d="M8.74825 35C13.5773 35 17.4965 32.3866 17.4965 29.1666V23.3333H8.74825C3.91922 23.3333 0 25.9466 0 29.1666C0 32.3866 3.91922 35 8.74825 35Z" fill="#0ACF83"/>
<path d="M0 17.5C0 14.28 3.91922 11.6667 8.74825 11.6667H17.4965V23.3334H8.74825C3.91922 23.3334 0 20.72 0 17.5Z" fill="#A259FF"/>
<path d="M0 5.83333C0 2.61333 3.91922 0 8.74825 0H17.4965V11.6667H8.74825C3.91922 11.6667 0 9.05333 0 5.83333Z" fill="#F24E1E"/>
<path d="M17.4966 0H26.2448C31.0739 0 34.9931 2.61333 34.9931 5.83333C34.9931 9.05333 31.0739 11.6667 26.2448 11.6667H17.4966V0Z" fill="#FF7262"/>
<path d="M34.9931 17.5C34.9931 20.72 31.0739 23.3334 26.2448 23.3334C21.4158 23.3334 17.4966 20.72 17.4966 17.5C17.4966 14.28 21.4158 11.6667 26.2448 11.6667C31.0739 11.6667 34.9931 14.28 34.9931 17.5Z" fill="#1ABCFE"/>
</svg>
