<?xml version="1.0" standalone="no"?>
<!DOCTYPE svg PUBLIC "-//W3C//DTD SVG 20010904//EN"
 "http://www.w3.org/TR/2001/REC-SVG-20010904/DTD/svg10.dtd">
<svg version="1.0" xmlns="http://www.w3.org/2000/svg"
 width="200.000000pt" height="200.000000pt" viewBox="0 0 200.000000 200.000000"
 preserveAspectRatio="xMidYMid meet">

<g transform="translate(0.000000,200.000000) scale(0.100000,-0.100000)"
fill="#000000" stroke="none">
<path d="M1346 1729 c-146 -52 -272 -77 -502 -98 -124 -11 -177 -28 -247 -79
-40 -28 -77 -75 -77 -96 0 -3 21 5 48 17 44 21 60 22 252 20 175 -2 217 1 289
17 107 26 230 90 295 154 54 53 103 117 89 115 -4 0 -71 -23 -147 -50z"/>
<path d="M460 1216 c0 -2 25 -131 55 -287 112 -572 135 -690 135 -695 0 -2 33
-4 74 -4 l74 0 12 47 c6 26 45 194 86 373 41 179 81 341 90 360 l17 35 13 -32
c8 -18 52 -198 99 -400 49 -211 91 -372 99 -378 7 -6 41 -8 77 -5 l64 5 32
170 c17 94 59 309 92 479 34 171 61 316 61 323 0 9 -17 13 -58 13 l-58 0 -74
-390 c-41 -214 -77 -386 -81 -382 -3 4 -21 79 -38 167 -18 88 -48 227 -68 309
-31 129 -40 154 -68 185 -31 34 -37 36 -94 36 -55 0 -64 -3 -92 -32 -35 -34
-53 -101 -140 -510 -19 -90 -37 -163 -41 -163 -5 0 -8 4 -8 8 0 20 -139 753
-145 762 -6 9 -115 15 -115 6z"/>
</g>
</svg>
