<?xml version="1.0" standalone="no"?>
<!DOCTYPE svg PUBLIC "-//W3C//DTD SVG 20010904//EN"
 "http://www.w3.org/TR/2001/REC-SVG-20010904/DTD/svg10.dtd">
<svg version="1.0" xmlns="http://www.w3.org/2000/svg"
 width="285.000000pt" height="291.000000pt" viewBox="0 0 285.000000 291.000000"
 preserveAspectRatio="xMidYMid meet">

<g transform="translate(0.000000,291.000000) scale(0.100000,-0.100000)"
fill="#000000" stroke="none">
<path d="M293 2321 c-64 -23 -97 -46 -149 -103 -195 -212 -94 -562 184 -633
52 -14 116 -16 400 -13 l337 3 58 27 c80 38 158 115 193 191 26 56 29 72 29
167 0 93 -3 112 -27 162 -34 74 -112 152 -186 186 l-57 27 -365 2 c-337 2
-369 1 -417 -16z"/>
<path d="M880 1415 c-147 -42 -255 -164 -280 -316 -13 -83 -13 -595 1 -678 24
-152 122 -269 261 -312 78 -25 150 -24 232 1 53 17 79 33 131 81 76 72 111
136 125 234 12 88 13 578 0 664 -33 230 -257 385 -470 326z"/>
<path d="M1800 1419 c-112 -22 -217 -107 -268 -217 -24 -50 -27 -69 -27 -162
0 -99 2 -110 33 -172 55 -112 157 -188 278 -208 78 -13 607 -13 675 0 209 39
348 240 310 447 -30 162 -141 278 -299 312 -63 13 -634 13 -702 0z"/>
</g>
</svg>
